<svg xmlns="http://www.w3.org/2000/svg" viewBox="0 0 496.158 496.158"><path fill="#337180" d="M496.158 248.085C496.158 111.063 385.088.003 248.082.003 111.07.003 0 111.063 0 248.085c0 137.001 111.07 248.07 248.082 248.07 137.006 0 248.076-111.069 248.076-248.07z"/><path fill="#b5e3ea" d="M369.891 107.193h-34.498a5.75 5.75 0 0 0-5.749 5.749v270.273a5.75 5.75 0 0 0 5.749 5.749h34.498a5.747 5.747 0 0 0 5.748-5.749V112.942a5.748 5.748 0 0 0-5.748-5.749z"/><path fill="#48a1af" d="M391.725 231.394v-34.498a5.75 5.75 0 0 0-5.749-5.749h-66.668a5.75 5.75 0 0 0-5.75 5.749v34.498a5.748 5.748 0 0 0 5.75 5.748h66.668a5.749 5.749 0 0 0 5.749-5.748z"/><path fill="#e9fcff" d="M385.975 241.52h-66.668c-5.585 0-10.129-4.543-10.129-10.126v-34.498c0-5.584 4.544-10.128 10.129-10.128h66.668c5.585 0 10.128 4.544 10.128 10.128v34.498c0 5.583-4.543 10.126-10.128 10.126zm-66.667-45.994c-.756 0-1.371.614-1.371 1.37v34.498a1.37 1.37 0 0 0 1.371 1.369h66.668a1.37 1.37 0 0 0 1.371-1.369v-34.498c0-.756-.615-1.37-1.371-1.37h-66.668z"/><path fill="#b5e3ea" d="M268.088 107.193h-34.497a5.75 5.75 0 0 0-5.749 5.749v270.273a5.75 5.75 0 0 0 5.749 5.749h34.497a5.747 5.747 0 0 0 5.748-5.749V112.942a5.747 5.747 0 0 0-5.748-5.749z"/><path fill="#48a1af" d="M289.923 333.196v-34.497a5.75 5.75 0 0 0-5.75-5.749h-66.668a5.75 5.75 0 0 0-5.75 5.749v34.497a5.748 5.748 0 0 0 5.75 5.748h66.668a5.748 5.748 0 0 0 5.75-5.748z"/><path fill="#e9fcff" d="M284.173 343.323h-66.668c-5.584 0-10.129-4.543-10.129-10.127v-34.497c0-5.584 4.545-10.128 10.129-10.128h66.668c5.585 0 10.129 4.544 10.129 10.128v34.497c0 5.584-4.544 10.127-10.129 10.127zm-66.668-45.994c-.756 0-1.371.614-1.371 1.37v34.497a1.37 1.37 0 0 0 1.371 1.369h66.668a1.37 1.37 0 0 0 1.371-1.369v-34.497c0-.756-.615-1.37-1.371-1.37h-66.668z"/><path fill="#b5e3ea" d="M166.286 107.193h-34.498a5.748 5.748 0 0 0-5.749 5.749v270.273a5.748 5.748 0 0 0 5.749 5.749h34.498a5.749 5.749 0 0 0 5.748-5.749V112.942a5.749 5.749 0 0 0-5.748-5.749z"/><path fill="#48a1af" d="M188.119 163.526v-34.498a5.748 5.748 0 0 0-5.749-5.749h-66.668a5.75 5.75 0 0 0-5.749 5.749v34.498a5.749 5.749 0 0 0 5.749 5.748h66.668a5.748 5.748 0 0 0 5.749-5.748z"/><path fill="#e9fcff" d="M182.37 173.652h-66.668c-5.585 0-10.128-4.544-10.128-10.126v-34.498c0-5.584 4.543-10.127 10.128-10.127h66.668c5.585 0 10.129 4.543 10.129 10.127v34.498c0 5.582-4.544 10.126-10.129 10.126zm-66.668-45.994a1.37 1.37 0 0 0-1.37 1.37v34.498a1.37 1.37 0 0 0 1.37 1.369h66.668a1.37 1.37 0 0 0 1.371-1.369v-34.498c0-.756-.615-1.37-1.371-1.37h-66.668z"/></svg>
